<?xml version="1.0" encoding="UTF-8"?>
<svg id="Layer_2" data-name="Layer 2" xmlns="http://www.w3.org/2000/svg" xmlns:xlink="http://www.w3.org/1999/xlink" viewBox="0 0 400 118.72">
  <defs>
    <style>
      .cls-1 {
        fill: url(#linear-gradient-2);
      }

      .cls-2 {
        fill: #f7941d;
      }

      .cls-3 {
        fill: url(#linear-gradient-4);
      }

      .cls-4 {
        fill: url(#linear-gradient-3);
      }

      .cls-5 {
        fill: #5f2466;
      }

      .cls-6 {
        fill: url(#linear-gradient);
      }
    </style>
    <linearGradient id="linear-gradient" x1="215.27" y1="26.5" x2="284.81" y2="26.5" gradientUnits="userSpaceOnUse">
      <stop offset="0" stop-color="#f59120"/>
      <stop offset="1" stop-color="#652f8e"/>
    </linearGradient>
    <linearGradient id="linear-gradient-2" x1="256.48" y1="12.31" x2="257.96" y2="12.31" gradientUnits="userSpaceOnUse">
      <stop offset="0" stop-color="#d2552a"/>
      <stop offset="1" stop-color="#95298b"/>
    </linearGradient>
    <linearGradient id="linear-gradient-3" x1="253.22" y1="28.89" x2="305.52" y2="28.89" xlink:href="#linear-gradient"/>
    <linearGradient id="linear-gradient-4" x1="282.66" y1="14.93" x2="284.14" y2="14.93" xlink:href="#linear-gradient-2"/>
  </defs>
  <g id="Layer_1-2" data-name="Layer 1">
    <g>
      <g>
        <path class="cls-6" d="M274.6,38.86c-.48-.99-1.54-1.59-2.63-1.5l-15.18,1.27c-4.39.37-8.48-1.96-10.42-5.93-2.56-5.26-.38-11.63,4.89-14.2l30.33-14.79c.59.42,1.39.51,2.08.17,1.01-.49,1.44-1.72.94-2.73s-1.72-1.44-2.73-.94c-.7.34-1.11,1.02-1.14,1.73,0,.03,0,.05,0,.07l-14.27,6.96s-.03-.04-.04-.05l-7.14,3.48s0,.04,0,.07c-.05.69-.47,1.35-1.14,1.68s-1.44.25-2.02-.13c-.02-.02-.04-.03-.06-.04-.27-.19-.5-.45-.65-.77s-.23-.66-.2-1c.03-.72.44-1.4,1.14-1.74s1.49-.25,2.07.17l9.73-4.75c.59.42,1.39.51,2.08.17,1.01-.49,1.44-1.72.94-2.73s-1.72-1.44-2.74-.95c-.7.34-1.11,1.02-1.14,1.74l-4.06,1.98c-3.24-2.3-7.19-3.65-11.47-3.65-10.97,0-19.86,8.89-19.87,19.86h-1.27c-8.47,0-15.33,6.86-15.33,15.33,0,8.47,6.87,15.32,15.33,15.33h21.14s21.62-10.55,21.62-10.55c1.33-.65,1.88-2.25,1.23-3.58Z"/>
        <path class="cls-1" d="M256.56,12.64c.18.36.62.52.99.34s.52-.63.34-.99-.63-.53-.99-.35-.52.63-.34,1Z"/>
        <path class="cls-4" d="M294.59,5.01c-.7.34-1.11,1.02-1.14,1.73l-38.72,18.89c-1.33.65-1.89,2.26-1.24,3.59.49,1.01,1.52,1.59,2.63,1.5l15.18-1.27c4.33-.36,8.51,2.02,10.42,5.93,2.56,5.26.37,11.62-4.88,14.18l-7.01,3.42h23.09c6.96,0,12.6-5.64,12.6-12.6,0-6.49-4.92-11.83-11.22-12.51,0-.24.02-.47.02-.71,0-4.61-1.57-8.84-4.2-12.21l.36-.17c.59.42,1.38.51,2.07.17,1.02-.5,1.44-1.72.95-2.74s-1.72-1.44-2.74-.94c-.7.34-1.12,1.03-1.15,1.75l-4.17,2.03c-.03.71-.45,1.39-1.14,1.73s-1.49.25-2.07-.17c-.28-.2-.51-.46-.66-.77s-.22-.66-.21-.99c.03-.72.45-1.41,1.15-1.75s1.5-.25,2.08.17l9.73-4.75c.58.41,1.37.51,2.07.17,1.02-.5,1.44-1.72.95-2.74s-1.72-1.44-2.74-.94Z"/>
        <path class="cls-3" d="M282.73,15.26c.18.37.63.52.99.34s.53-.62.35-.99-.63-.52-1-.34-.52.63-.34.99Z"/>
      </g>
      <g>
        <path class="cls-5" d="M0,80.84h13.85c.13,2.72,1.15,4.75,3.06,6.11,2.04,1.36,4.75,2.04,8.15,2.04,2.44,0,4.55-.47,6.31-1.43,1.63-.95,2.44-2.24,2.44-3.87,0-2.44-2.85-4.28-8.55-5.5-2.44-.41-4.28-.81-5.5-1.22-7.2-1.76-12.02-3.87-14.46-6.31-2.72-2.44-4.07-5.7-4.07-9.78,0-5.16,1.97-9.44,5.91-12.83,4.07-3.12,9.37-4.68,15.89-4.68,7.06,0,12.7,1.56,16.91,4.68,3.94,3.4,6.04,7.81,6.31,13.24h-8.76c-2.58,0-4.55-1.15-5.91-3.46-.54-.54-1.09-1.08-1.63-1.63-1.63-1.22-3.87-1.83-6.72-1.83s-4.75.41-6.11,1.22c-1.22.81-1.83,2.04-1.83,3.67,0,2.17,3.53,4.01,10.59,5.5.81.27,1.53.48,2.14.61.61.14,1.19.2,1.73.2,6.92,1.77,11.74,3.8,14.46,6.11,2.58,2.44,3.87,5.7,3.87,9.78,0,5.98-2.17,10.59-6.52,13.85-4.07,2.99-10.18,4.48-18.33,4.48s-13.51-1.56-17.31-4.68c-3.94-3.12-5.91-7.67-5.91-13.65v-.61Z"/>
        <path class="cls-5" d="M69.37,111.8c0,1.9-.68,3.53-2.04,4.89-1.36,1.36-2.99,2.04-4.89,2.04h-6.93v-50.72c0-9.5,2.78-15.99,8.35-19.45,5.57-3.46,11.61-5.19,18.13-5.19,3.39,0,6.82.65,10.29,1.93,3.46,1.29,6.21,3.16,8.25,5.6,4.07,5.3,6.11,12.09,6.11,20.37s-2.04,15.48-6.11,20.78c-4.07,5.16-9.3,7.74-15.68,7.74-3.4,0-6.38-.61-8.96-1.83-2.72-1.36-4.89-3.46-6.52-6.31v20.16ZM92.59,71.88c0-5.3-1.02-9.37-3.06-12.22-2.04-2.85-4.96-4.28-8.76-4.28s-6.52,1.43-8.55,4.28c-1.9,2.58-2.85,6.65-2.85,12.22,0,5.16,1.02,9.03,3.06,11.61,2.04,2.85,4.96,4.28,8.76,4.28,3.53,0,6.31-1.43,8.35-4.28,2.04-2.85,3.06-6.72,3.06-11.61Z"/>
        <path class="cls-5" d="M151.99,82.06h10.18c-1.5,5.7-4.35,10.05-8.55,13.04-4.21,3.12-9.51,4.68-15.89,4.68-7.74,0-13.78-2.51-18.13-7.54-4.35-4.89-6.52-11.88-6.52-20.98s2.1-15.48,6.31-20.37c4.34-5.02,10.39-7.54,18.13-7.54,8.15,0,14.46,2.44,18.94,7.33,4.34,5.03,6.52,12.02,6.52,20.98v2.24c0,.68-.07,1.16-.2,1.43h-35.24c.13,4.21,1.15,7.33,3.06,9.37,1.76,2.17,4.41,3.26,7.94,3.26,2.31,0,4.28-.47,5.91-1.43.41-.13.78-.37,1.12-.71.34-.34.71-.71,1.12-1.12.13-.41.64-.95,1.53-1.63.88-.68,2.14-1.02,3.77-1.02ZM127.55,66.17h20.78c-.27-3.67-1.22-6.38-2.85-8.15-1.77-1.9-4.28-2.85-7.54-2.85-2.99,0-5.43.95-7.33,2.85-1.9,1.9-2.92,4.62-3.06,8.15Z"/>
        <path class="cls-5" d="M171.05,28.69h7.33c1.9,0,3.53.65,4.89,1.93,1.36,1.29,2.04,2.89,2.04,4.79v63.34h-14.26V28.69Z"/>
        <path class="cls-5" d="M193.58,28.69h7.33c1.9,0,3.53.65,4.89,1.93,1.36,1.29,2.04,2.89,2.04,4.79v63.34h-14.26V28.69Z"/>
        <path class="cls-2" d="M234.82,76.66c-1.16-1.62-2.74-2.43-4.74-2.43-2.16,0-3.82.77-4.98,2.31-1.16,1.54-1.74,3.66-1.74,6.36v15.85h-7.87v-39.8h3.93c1.08,0,2,.39,2.78,1.16.77.77,1.16,1.7,1.16,2.78v9.14c1.39-2.31,3.36-3.78,5.9-4.4,2.55-.62,4.98-.46,7.29.46,2.16.93,3.97,2.39,5.44,4.4,1.46,2.01,2.2,4.78,2.2,8.33v17.93h-7.75v-15.97c0-1.16-.1-2.22-.29-3.18-.19-.96-.64-1.95-1.33-2.95Z"/>
        <path class="cls-2" d="M252.36,95.98c-1.62-1.39-2.78-3.26-3.47-5.61-.69-2.35-1.04-4.8-1.04-7.35,0-2.08.29-4.17.87-6.25.58-2.08,1.48-3.82,2.72-5.21,2-2.31,4.59-3.68,7.75-4.11,3.16-.42,6.02-.17,8.56.75,2.93,1.16,5.09,3.16,6.48,6.02,1.31,2.55,1.97,5.52,1.97,8.91,0,2.47-.27,4.59-.81,6.36-.54,1.78-1.23,3.28-2.08,4.51-1.85,2.55-4.21,4.13-7.06,4.74-2.55.69-5.11.75-7.69.17-2.59-.58-4.65-1.56-6.19-2.95ZM257.91,75.62c-1.62,1.78-2.35,4.42-2.2,7.93.15,3.51.81,5.96,1.97,7.35.46.62,1.27,1.14,2.43,1.56,1.16.42,2.33.46,3.53.12,1.2-.35,2.26-1.21,3.18-2.6.93-1.39,1.43-3.62,1.5-6.71,0-2.78-.44-4.86-1.33-6.25-.89-1.39-1.91-2.27-3.07-2.66-1.16-.39-2.31-.41-3.47-.06-1.16.35-2.01.79-2.55,1.33Z"/>
        <path class="cls-2" d="M279.73,88.58h7.87c.08,1.54.65,2.7,1.74,3.47,1.16.77,2.7,1.16,4.63,1.16,1.39,0,2.58-.27,3.59-.81.93-.54,1.39-1.27,1.39-2.2,0-1.39-1.62-2.43-4.86-3.12-1.39-.23-2.43-.46-3.12-.69-4.09-1-6.83-2.2-8.21-3.59-1.54-1.39-2.31-3.24-2.31-5.55,0-2.93,1.12-5.36,3.36-7.29,2.31-1.77,5.32-2.66,9.02-2.66,4.01,0,7.21.89,9.6,2.66,2.24,1.93,3.43,4.44,3.59,7.52h-4.98c-1.47,0-2.59-.66-3.36-1.97-.31-.31-.62-.62-.93-.92-.93-.69-2.2-1.04-3.82-1.04s-2.7.23-3.47.69c-.69.46-1.04,1.16-1.04,2.08,0,1.23,2,2.28,6.02,3.12.46.16.87.27,1.21.35.35.08.67.12.98.12,3.93,1,6.67,2.16,8.22,3.47,1.46,1.39,2.2,3.24,2.2,5.55,0,3.4-1.23,6.02-3.7,7.87-2.31,1.7-5.79,2.54-10.41,2.54s-7.68-.89-9.83-2.66c-2.24-1.77-3.36-4.36-3.36-7.75v-.35Z"/>
        <path class="cls-2" d="M324.93,98.76c-2.55.15-5.3.12-8.27-.12-2.97-.23-4.45-2.12-4.45-5.67v-34.02h4.17c1,0,1.89.39,2.66,1.16.77.77,1.16,1.7,1.16,2.78v5.21h4.74v1.62c0,1.16-.39,2.1-1.16,2.83-.77.73-1.7,1.1-2.78,1.1h-.81v17.12c0,1.31.77,1.97,2.31,1.97h2.43v6.02Z"/>
        <path class="cls-2" d="M329.28,58.96h4.17c1.08,0,2,.39,2.78,1.16.77.77,1.16,1.7,1.16,2.78v2.43h-8.1v-6.36ZM329.28,67.98h4.17c1.08,0,2,.39,2.78,1.16.77.77,1.16,1.7,1.16,2.78v26.84h-8.1v-30.78Z"/>
        <path class="cls-2" d="M367.53,98.76h-4.05c-1.16,0-2.1-.37-2.83-1.1-.73-.73-1.1-1.68-1.1-2.83v-15.74c0-1.85-.56-3.2-1.68-4.05-1.12-.85-2.37-1.27-3.76-1.27s-2.62.42-3.7,1.27c-1.08.85-1.62,2.2-1.62,4.05v19.67h-8.1v-18.05c0-5.24,1.37-8.75,4.11-10.53,2.74-1.77,5.77-2.74,9.08-2.89,3.39,0,6.52.89,9.37,2.66,2.85,1.78,4.28,5.36,4.28,10.76v18.05Z"/>
        <path class="cls-2" d="M392.13,96.91v-1.97c-1.39,2.16-3.26,3.51-5.61,4.05-2.35.54-4.69.35-7-.58-2.31-.93-4.3-2.64-5.96-5.15-1.66-2.51-2.49-5.8-2.49-9.89,0-4.78,1.1-8.66,3.3-11.63,2.2-2.97,5.73-4.46,10.59-4.46,3.7,0,7.13,1,10.3,3.01,3.16,2.01,4.74,5.71,4.74,11.11v16.31c0,5.4-1.58,9.08-4.74,11.05-3.16,1.97-6.6,2.95-10.3,2.95-7.1,0-11.49-3.32-13.19-9.95h8.45c.62,1.08,1.56,1.91,2.83,2.49,1.27.58,2.55.73,3.82.46,1.27-.27,2.43-1.02,3.47-2.26,1.04-1.23,1.64-3.09,1.79-5.55ZM378.94,83.6c0,5.32,1.54,8.27,4.63,8.85,3.08.58,5.36-.13,6.83-2.14.69-.85,1.19-2.18,1.5-3.99.31-1.81.33-3.6.06-5.38-.27-1.77-.91-3.36-1.91-4.74-1-1.39-2.47-2.08-4.4-2.08-2.62,0-4.4.96-5.32,2.89-.93,1.93-1.39,4.13-1.39,6.59Z"/>
      </g>
    </g>
  </g>
</svg>